{"glyphs":{"0":{"ha":765,"x_min":72,"x_max":696,"o":"m 383 -8 q 260 8 317 -8 q 161 62 203 25 q 96 158 119 99 q 72 301 72 217 l 72 706 q 96 849 72 790 q 161 945 119 908 q 260 999 203 982 q 383 1015 317 1015 q 506 999 449 1015 q 605 945 563 982 q 672 849 647 908 q 696 706 696 790 l 696 301 q 672 158 696 217 q 605 62 647 99 q 506 8 563 25 q 383 -8 449 -8 m 549 706 q 505 841 549 797 q 383 885 461 885 q 262 841 304 885 q 219 706 219 797 l 219 301 q 262 166 219 210 q 383 122 304 122 q 505 166 461 122 q 549 301 549 210 l 549 706 m 385 561 q 427 545 411 561 q 443 503 443 529 q 427 460 443 476 q 385 443 411 443 q 341 460 357 443 q 325 503 325 476 q 341 545 325 529 q 385 561 357 561 z "},"1":{"ha":371,"x_min":10,"x_max":286,"o":"m 139 821 l 90 760 q 75 749 83 753 q 60 746 67 746 q 24 765 38 746 q 10 806 10 783 q 17 837 10 821 q 39 863 25 853 l 183 1001 q 221 1017 199 1017 q 265 1004 244 1017 q 286 968 286 992 l 286 49 q 263 13 286 25 q 213 0 240 0 q 162 13 185 0 q 139 49 139 25 l 139 821 z "},"2":{"ha":688,"x_min":42,"x_max":650,"o":"m 61 769 q 84 870 61 825 q 147 948 107 915 q 238 998 186 981 q 346 1015 289 1015 q 460 996 406 1015 q 555 940 514 976 q 619 852 596 903 q 643 739 643 801 q 610 605 643 664 q 526 497 576 546 q 418 409 476 449 q 310 333 360 369 q 226 260 260 296 q 193 183 193 224 l 193 131 l 601 131 q 635 112 621 131 q 650 67 650 93 q 635 20 650 40 q 601 0 621 0 l 107 0 q 64 13 86 0 q 42 49 42 26 l 42 183 q 75 287 42 239 q 159 378 108 335 q 269 463 210 422 q 378 547 328 504 q 463 635 429 589 q 496 735 496 681 q 488 786 496 760 q 460 833 479 813 q 413 867 442 854 q 346 881 385 881 q 247 847 288 881 q 206 743 206 814 q 185 705 206 722 q 128 688 164 688 q 80 705 99 688 q 61 769 61 722 z "},"3":{"ha":707,"x_min":33,"x_max":657,"o":"m 342 122 q 469 163 428 122 q 510 294 510 203 l 510 321 q 463 438 510 404 q 340 472 417 472 q 303 490 314 472 q 293 531 293 508 q 303 572 293 554 q 340 590 314 590 q 399 597 372 590 q 444 619 425 603 q 474 666 464 636 q 485 743 485 696 q 449 853 485 819 q 346 886 414 886 q 276 876 304 886 q 232 851 249 867 q 208 814 215 835 q 201 772 201 793 q 187 728 201 744 q 132 713 172 713 q 69 726 83 713 q 56 781 56 740 q 69 855 56 814 q 115 931 82 896 q 205 991 149 967 q 347 1015 261 1015 q 460 1002 408 1015 q 548 960 511 989 q 606 883 585 931 q 626 768 626 836 q 596 620 626 681 q 515 536 565 560 q 617 461 578 513 q 657 321 657 410 l 657 294 q 632 153 657 211 q 564 60 607 96 q 463 8 521 24 q 340 -8 406 -8 q 201 15 258 -8 q 106 73 143 38 q 51 151 68 108 q 33 236 33 194 q 49 285 33 272 q 101 299 64 299 q 163 285 147 299 q 178 243 178 271 q 217 160 178 197 q 342 122 257 122 z "},"4":{"ha":669,"x_min":4,"x_max":663,"o":"m 397 228 l 56 228 q 19 242 33 228 q 4 282 4 257 q 13 313 4 297 l 349 975 q 377 1006 360 997 q 413 1015 394 1015 q 435 1011 422 1015 q 460 1000 449 1007 q 478 982 471 993 q 486 958 486 971 q 479 936 486 950 l 193 365 l 397 365 l 397 557 q 420 594 397 583 q 471 606 443 606 q 522 594 499 606 q 544 557 544 583 l 544 365 l 613 365 q 650 344 638 365 q 663 296 663 322 q 647 249 663 271 q 613 228 632 228 l 544 228 l 544 49 q 522 13 544 25 q 471 0 499 0 q 420 13 443 0 q 397 49 397 25 l 397 228 z "},"5":{"ha":690,"x_min":31,"x_max":654,"o":"m 342 615 q 465 600 408 615 q 564 550 522 585 q 630 460 606 515 q 654 324 654 404 l 654 297 q 630 156 654 214 q 563 61 606 97 q 464 8 521 25 q 343 -8 407 -8 q 210 12 268 -8 q 112 66 151 32 q 51 144 72 100 q 31 238 31 189 q 50 292 31 278 q 103 306 69 306 q 163 289 149 306 q 178 247 178 272 q 225 155 178 188 q 340 122 272 122 q 463 165 419 122 q 507 297 507 207 l 507 324 q 463 456 507 413 q 342 499 419 499 l 140 499 q 91 514 104 499 q 78 556 78 529 q 78 572 78 563 q 81 589 79 582 l 113 967 q 146 1015 117 1015 l 558 1015 q 593 994 582 1015 q 604 950 604 974 q 593 905 604 925 q 558 885 582 885 l 238 885 l 218 615 l 342 615 z "},"6":{"ha":744,"x_min":69,"x_max":693,"o":"m 410 610 q 519 596 468 610 q 610 549 571 582 q 671 462 649 517 q 693 326 693 407 l 693 301 q 669 158 693 217 q 603 62 644 99 q 504 8 561 25 q 382 -8 447 -8 q 258 8 315 -8 q 160 62 201 25 q 94 158 118 99 q 69 301 69 217 l 69 706 q 94 849 69 790 q 161 945 118 908 q 263 999 204 982 q 388 1015 321 1015 q 523 993 465 1015 q 618 935 581 971 q 674 856 656 900 q 693 768 693 813 q 676 719 693 732 q 624 706 658 706 q 570 717 593 706 q 547 761 547 728 q 534 813 547 790 q 499 852 521 836 q 448 876 478 868 q 385 885 418 885 q 260 841 304 885 q 215 706 215 797 l 215 531 q 301 592 251 575 q 410 610 351 610 m 215 293 q 259 157 215 200 q 382 114 303 114 q 503 157 460 114 q 546 293 546 200 l 546 317 q 503 452 546 413 q 381 492 460 492 q 260 455 306 492 q 215 329 215 418 l 215 293 z "},"7":{"ha":672,"x_min":29,"x_max":653,"o":"m 653 824 q 645 783 653 806 q 626 742 638 761 l 253 18 q 208 -4 240 -4 q 145 16 174 -4 q 117 68 117 36 q 124 96 117 83 l 506 799 l 506 885 l 176 885 l 176 754 q 153 719 176 733 q 101 706 131 706 q 51 719 72 706 q 29 754 29 733 l 29 967 q 50 1000 29 985 q 94 1015 71 1015 l 588 1015 q 631 1000 610 1015 q 653 967 653 985 l 653 824 z "},"8":{"ha":724,"x_min":50,"x_max":674,"o":"m 363 1015 q 475 1002 424 1015 q 564 960 526 989 q 623 884 601 931 q 644 771 644 838 q 608 629 644 682 q 514 554 572 576 q 630 465 586 528 q 674 294 674 403 l 674 278 q 649 146 674 200 q 583 57 625 92 q 485 7 542 22 q 363 -8 428 -8 q 240 7 297 -8 q 141 57 183 22 q 74 146 99 92 q 50 278 50 200 l 50 294 q 94 465 50 403 q 210 554 138 528 q 116 629 151 576 q 81 771 81 682 q 102 884 81 838 q 161 960 124 931 q 250 1002 199 989 q 363 1015 301 1015 m 526 318 q 483 450 526 408 q 363 492 440 492 q 241 450 285 492 q 197 318 197 408 l 197 293 q 242 157 197 200 q 363 114 286 114 q 484 158 442 114 q 526 293 526 201 l 526 318 m 363 893 q 260 861 296 893 q 224 754 224 829 q 260 647 224 679 q 363 614 296 614 q 465 647 429 614 q 501 754 501 679 q 465 861 501 829 q 363 893 429 893 z "},"9":{"ha":744,"x_min":51,"x_max":675,"o":"m 335 397 q 225 411 276 397 q 135 458 174 425 q 74 544 96 490 q 51 681 51 599 l 51 706 q 76 849 51 790 q 142 945 100 908 q 240 999 183 982 q 363 1015 297 1015 q 486 999 429 1015 q 585 945 543 982 q 651 849 626 908 q 675 706 675 790 l 675 301 q 651 158 675 217 q 583 62 626 99 q 482 8 540 25 q 356 -8 424 -8 q 221 14 278 -8 q 126 72 164 36 q 70 151 89 107 q 51 239 51 194 q 69 288 51 275 q 121 301 86 301 q 174 290 151 301 q 197 246 197 279 q 210 194 197 217 q 245 155 224 171 q 297 131 267 139 q 360 122 326 122 q 483 166 439 122 q 528 301 528 210 l 528 476 q 443 415 493 432 q 335 397 393 397 m 528 714 q 485 850 528 807 q 363 893 442 893 q 242 850 285 893 q 199 714 199 807 l 199 690 q 242 555 199 594 q 364 515 285 515 q 483 552 439 515 q 528 678 528 589 l 528 714 z "},"A":{"ha":781,"x_min":19,"x_max":763,"o":"m 111 0 q 80 4 96 0 q 50 17 64 8 q 28 36 36 25 q 19 61 19 47 q 21 74 19 69 l 297 974 q 332 1011 306 999 q 390 1024 358 1024 q 449 1011 422 1024 q 485 974 476 999 l 760 74 q 763 61 763 65 q 753 38 763 49 q 731 18 744 26 q 701 5 718 10 q 669 0 685 0 q 638 7 651 0 q 619 31 625 14 l 563 228 l 219 228 l 163 31 q 144 7 157 14 q 111 0 131 0 m 529 346 l 390 822 l 251 346 l 529 346 z "},"Æ":{"ha":1057,"x_min":88,"x_max":1029,"o":"m 661 567 l 840 567 q 876 549 864 567 q 889 507 889 531 q 877 469 889 488 q 840 450 865 450 l 661 450 l 661 131 l 981 131 q 1017 111 1004 131 q 1029 64 1029 92 q 1017 20 1029 40 q 981 0 1006 0 l 579 0 q 534 13 554 0 q 514 49 514 25 l 514 450 l 226 450 l 226 56 q 214 16 226 32 q 153 0 201 0 q 102 16 117 0 q 88 56 88 32 l 88 706 q 111 849 88 790 q 176 945 135 908 q 274 999 218 982 q 393 1015 329 1015 l 981 1015 q 1017 995 1006 1015 q 1029 951 1029 975 q 1017 904 1029 924 q 981 885 1004 885 l 661 885 l 661 567 m 226 567 l 514 567 l 514 885 l 393 885 q 270 841 314 885 q 226 706 226 797 l 226 567 z "},"Ǽ":{"ha":1057,"x_min":88,"x_max":1029,"o":"m 539 1146 q 522 1142 531 1142 q 488 1160 501 1142 q 474 1199 474 1179 q 494 1235 474 1224 l 667 1322 q 682 1325 678 1325 q 716 1306 703 1325 q 729 1268 729 1288 q 724 1247 729 1257 q 707 1231 719 1236 l 539 1146 m 661 567 l 840 567 q 876 549 864 567 q 889 507 889 531 q 877 469 889 488 q 840 450 865 450 l 661 450 l 661 131 l 981 131 q 1017 111 1004 131 q 1029 64 1029 92 q 1017 20 1029 40 q 981 0 1006 0 l 579 0 q 534 13 554 0 q 514 49 514 25 l 514 450 l 226 450 l 226 56 q 214 16 226 32 q 153 0 201 0 q 102 16 117 0 q 88 56 88 32 l 88 706 q 111 849 88 790 q 176 945 135 908 q 274 999 218 982 q 393 1015 329 1015 l 981 1015 q 1017 995 1006 1015 q 1029 951 1029 975 q 1017 904 1029 924 q 981 885 1004 885 l 661 885 l 661 567 m 226 567 l 514 567 l 514 885 l 393 885 q 270 841 314 885 q 226 706 226 797 l 226 567 z "},"Á":{"ha":781,"x_min":19,"x_max":763,"o":"m 111 0 q 80 4 96 0 q 50 17 64 8 q 28 36 36 25 q 19 61 19 47 q 21 74 19 69 l 297 974 q 332 1011 306 999 q 390 1024 358 1024 q 449 1011 422 1024 q 485 974 476 999 l 760 74 q 763 61 763 65 q 753 38 763 49 q 731 18 744 26 q 701 5 718 10 q 669 0 685 0 q 638 7 651 0 q 619 31 625 14 l 563 228 l 219 228 l 163 31 q 144 7 157 14 q 111 0 131 0 m 529 346 l 390 822 l 251 346 l 529 346 m 357 1149 q 340 1144 349 1144 q 306 1163 319 1144 q 292 1201 292 1182 q 313 1238 292 1226 l 485 1325 q 500 1328 496 1328 q 534 1309 521 1328 q 547 1271 547 1290 q 542 1249 547 1260 q 525 1233 538 1239 l 357 1149 z "},"Ă":{"ha":781,"x_min":19,"x_max":763,"o":"m 111 0 q 80 4 96 0 q 50 17 64 8 q 28 36 36 25 q 19 61 19 47 q 21 74 19 69 l 297 974 q 332 1011 306 999 q 390 1024 358 1024 q 449 1011 422 1024 q 485 974 476 999 l 760 74 q 763 61 763 65 q 753 38 763 49 q 731 18 744 26 q 701 5 718 10 q 669 0 685 0 q 638 7 651 0 q 619 31 625 14 l 563 228 l 219 228 l 163 31 q 144 7 157 14 q 111 0 131 0 m 529 346 l 390 822 l 251 346 l 529 346 m 567 1340 q 552 1273 567 1304 q 513 1217 538 1242 q 456 1179 488 1193 q 390 1165 424 1165 q 324 1179 356 1165 q 267 1217 292 1193 q 228 1273 243 1242 q 214 1340 214 1304 l 297 1340 q 326 1264 297 1294 q 390 1233 354 1233 q 453 1264 425 1233 q 482 1340 482 1294 l 567 1340 z "},"Â":{"ha":781,"x_min":19,"x_max":763,"o":"m 111 0 q 80 4 96 0 q 50 17 64 8 q 28 36 36 25 q 19 61 19 47 q 21 74 19 69 l 297 974 q 332 1011 306 999 q 390 1024 358 1024 q 449 1011 422 1024 q 485 974 476 999 l 760 74 q 763 61 763 65 q 753 38 763 49 q 731 18 744 26 q 701 5 718 10 q 669 0 685 0 q 638 7 651 0 q 619 31 625 14 l 563 228 l 219 228 l 163 31 q 144 7 157 14 q 111 0 131 0 m 529 346 l 390 822 l 251 346 l 529 346 m 244 1156 q 232 1151 238 1151 q 206 1166 217 1151 q 196 1200 196 1181 q 201 1224 196 1213 q 221 1243 207 1236 l 365 1321 q 389 1328 379 1328 q 413 1321 401 1328 l 557 1244 q 583 1199 583 1228 q 573 1166 583 1181 q 547 1151 563 1151 q 541 1153 544 1151 q 533 1156 538 1154 l 389 1233 l 244 1156 z "},"Ä":{"ha":781,"x_min":19,"x_max":763,"o":"m 111 0 q 80 4 96 0 q 50 17 64 8 q 28 36 36 25 q 19 61 19 47 q 21 74 19 69 l 297 974 q 332 1011 306 999 q 390 1024 358 1024 q 449 1011 422 1024 q 485 974 476 999 l 760 74 q 763 61 763 65 q 753 38 763 49 q 731 18 744 26 q 701 5 718 10 q 669 0 685 0 q 638 7 651 0 q 619 31 625 14 l 563 228 l 219 228 l 163 31 q 144 7 157 14 q 111 0 131 0 m 529 346 l 390 822 l 251 346 l 529 346 m 294 1282 q 338 1263 321 1282 q 356 1218 356 1244 q 338 1172 356 1192 q 294 1153 321 1153 q 249 1172 267 1153 q 231 1218 231 1192 q 249 1263 231 1244 q 294 1282 267 1282 m 488 1282 q 532 1263 514 1282 q 550 1218 550 1244 q 532 1172 550 1192 q 488 1153 514 1153 q 443 1172 461 1153 q 425 1218 425 1192 q 443 1263 425 1244 q 488 1282 461 1282 z "},"À":{"ha":781,"x_min":19,"x_max":763,"o":"m 111 0 q 80 4 96 0 q 50 17 64 8 q 28 36 36 25 q 19 61 19 47 q 21 74 19 69 l 297 974 q 332 1011 306 999 q 390 1024 358 1024 q 449 1011 422 1024 q 485 974 476 999 l 760 74 q 763 61 763 65 q 753 38 763 49 q 731 18 744 26 q 701 5 718 10 q 669 0 685 0 q 638 7 651 0 q 619 31 625 14 l 563 228 l 219 228 l 163 31 q 144 7 157 14 q 111 0 131 0 m 529 346 l 390 822 l 251 346 l 529 346 m 269 1233 q 253 1249 258 1239 q 247 1271 247 1260 q 260 1309 247 1290 q 294 1328 274 1328 q 310 1325 299 1328 l 482 1238 q 503 1201 503 1226 q 489 1163 503 1182 q 456 1144 475 1144 q 438 1149 446 1144 l 269 1233 z "},"Ā":{"ha":781,"x_min":19,"x_max":763,"o":"m 111 0 q 80 4 96 0 q 50 17 64 8 q 28 36 36 25 q 19 61 19 47 q 21 74 19 69 l 297 974 q 332 1011 306 999 q 390 1024 358 1024 q 449 1011 422 1024 q 485 974 476 999 l 760 74 q 763 61 763 65 q 753 38 763 49 q 731 18 744 26 q 701 5 718 10 q 669 0 685 0 q 638 7 651 0 q 619 31 625 14 l 563 228 l 219 228 l 163 31 q 144 7 157 14 q 111 0 131 0 m 529 346 l 390 822 l 251 346 l 529 346 m 197 1253 q 210 1290 197 1275 q 244 1304 224 1304 l 535 1304 q 569 1290 554 1304 q 583 1253 583 1275 q 569 1217 583 1231 q 535 1204 554 1204 l 244 1204 q 210 1217 224 1204 q 197 1253 197 1231 z "},"Ą":{"ha":781,"x_min":19,"x_max":763,"o":"m 689 -224 q 712 -234 704 -224 q 719 -258 719 -244 q 712 -281 719 -272 q 681 -289 704 -289 q 570 -258 611 -289 q 529 -172 529 -228 q 556 -72 529 -121 q 628 14 582 -24 q 619 31 621 19 l 563 228 l 219 228 l 163 31 q 144 7 157 14 q 111 0 131 0 q 80 4 96 0 q 50 17 64 8 q 28 36 36 25 q 19 61 19 47 q 21 74 19 69 l 297 974 q 332 1011 306 999 q 390 1024 358 1024 q 449 1011 422 1024 q 485 974 476 999 l 760 74 q 763 61 763 65 q 747 28 763 43 q 710 7 731 14 q 635 -69 665 -25 q 606 -160 606 -114 q 689 -224 606 -224 m 529 346 l 390 822 l 251 346 l 529 346 z "},"Å":{"ha":781,"x_min":19,"x_max":763,"o":"m 111 0 q 80 4 96 0 q 50 17 64 8 q 28 36 36 25 q 19 61 19 47 q 21 74 19 69 l 297 974 q 332 1011 306 999 q 390 1024 358 1024 q 449 1011 422 1024 q 485 974 476 999 l 760 74 q 763 61 763 65 q 753 38 763 49 q 731 18 744 26 q 701 5 718 10 q 669 0 685 0 q 638 7 651 0 q 619 31 625 14 l 563 228 l 219 228 l 163 31 q 144 7 157 14 q 111 0 131 0 m 529 346 l 390 822 l 251 346 l 529 346 m 389 1411 q 440 1400 415 1411 q 483 1370 464 1389 q 513 1327 501 1351 q 524 1276 524 1303 q 513 1224 524 1249 q 483 1181 501 1200 q 440 1150 464 1161 q 389 1139 415 1139 q 338 1150 361 1139 q 296 1181 314 1161 q 267 1224 278 1200 q 257 1276 257 1249 q 267 1327 257 1303 q 295 1370 278 1351 q 337 1400 313 1389 q 389 1411 361 1411 m 460 1275 q 439 1323 460 1301 q 390 1344 418 1344 q 339 1322 360 1344 q 318 1275 318 1300 q 339 1224 318 1247 q 390 1200 360 1200 q 439 1224 418 1200 q 460 1275 460 1247 z "},"Ã":{"ha":781,"x_min":19,"x_max":763,"o":"m 111 0 q 80 4 96 0 q 50 17 64 8 q 28 36 36 25 q 19 61 19 47 q 21 74 19 69 l 297 974 q 332 1011 306 999 q 390 1024 358 1024 q 449 1011 422 1024 q 485 974 476 999 l 760 74 q 763 61 763 65 q 753 38 763 49 q 731 18 744 26 q 701 5 718 10 q 669 0 685 0 q 638 7 651 0 q 619 31 625 14 l 563 228 l 219 228 l 163 31 q 144 7 157 14 q 111 0 131 0 m 529 346 l 390 822 l 251 346 l 529 346 m 308 1214 q 270 1208 286 1214 q 242 1195 254 1203 q 219 1182 229 1188 q 200 1176 210 1176 q 181 1182 189 1176 q 169 1196 174 1188 q 163 1213 165 1204 q 161 1226 161 1221 q 175 1270 161 1253 q 208 1298 189 1288 q 248 1312 228 1308 q 282 1315 268 1315 q 334 1308 311 1315 q 378 1294 357 1301 q 423 1279 400 1286 q 474 1272 446 1272 q 512 1278 496 1272 q 540 1290 528 1283 q 560 1301 551 1296 q 581 1307 569 1307 q 611 1288 603 1307 q 619 1260 619 1269 q 606 1213 619 1231 q 573 1187 592 1196 q 534 1174 554 1178 q 501 1171 514 1171 q 446 1178 469 1171 q 401 1192 422 1185 q 357 1207 379 1200 q 308 1214 335 1214 z "},"B":{"ha":768,"x_min":92,"x_max":715,"o":"m 92 967 q 112 1003 92 990 q 157 1015 132 1015 l 410 1015 q 516 1006 465 1015 q 606 969 567 996 q 667 895 644 942 q 690 775 690 849 q 658 631 690 688 q 572 550 626 574 q 631 519 604 538 q 676 474 657 501 q 705 409 694 447 q 715 318 715 371 l 715 292 q 694 156 715 211 q 635 65 672 100 q 548 15 599 31 q 439 0 497 0 l 157 0 q 109 14 126 0 q 92 47 92 28 l 92 967 m 411 131 q 527 172 486 131 q 568 303 568 213 l 568 325 q 527 454 568 417 q 411 492 486 492 l 238 492 l 238 131 l 411 131 m 238 608 l 403 608 q 543 751 543 608 q 505 853 543 822 q 400 885 467 885 l 238 885 l 238 608 z "}}}
